<?xml version="1.0" encoding="utf-8"?>
<!-- Generator: Adobe Illustrator 25.4.1, SVG Export Plug-In . SVG Version: 6.00 Build 0)  -->
<svg version="1.1" id="Layer_1" xmlns="http://www.w3.org/2000/svg" xmlns:xlink="http://www.w3.org/1999/xlink" x="0px" y="0px"
	 viewBox="0 0 600 600" style="enable-background:new 0 0 600 600;" xml:space="preserve">
<style type="text/css">
	.st0{fill:#FFF200;}
</style>
<path class="st0" d="M474.9,318.5c-6-11.6-6-25.4,0-37.1l21.7-42.5l-36.4-18.5c0,0,0,0,0,0l-6.2-3.1c-11.7-5.9-19.8-17.1-21.8-30
	l-0.9-5.4l-6.5-41.7l-47.1,7.5c-12.9,2.1-26-2.2-35.2-11.4l-1-1l-3.8-3.8c0,0,0,0,0,0l-28.8-28.9L280,131.5c0,0,0,0,0,0l-3.8,3.8
	l-1,1c-9.2,9.3-22.3,13.5-35.2,11.4l-47.1-7.5l-6.3,40.3c0,0,0,0,0,0l-1.1,6.8c-2,12.9-10.1,24.1-21.8,30l-6.2,3.1c0,0,0,0,0,0
	L121.1,239l21.7,42.5c6,11.6,6,25.4,0,37.1L121.1,361l42.5,21.6c11.7,5.9,19.8,17.1,21.8,30l1.1,6.8c0,0,0,0,0,0l6.3,40.3l47.1-7.5
	c12.9-2.1,26,2.2,35.2,11.4l1,1l3.8,3.8c0,0,0,0,0,0l28.8,28.9l28.8-28.9c0,0,0,0,0,0l3.8-3.8l1-1c9.2-9.3,22.3-13.5,35.2-11.4
	l47.1,7.5l6.5-41.7l0.9-5.4c2-12.9,10.1-24.1,21.8-30l42.5-21.6L474.9,318.5z"/>
</svg>
