<?xml version="1.0" encoding="utf-8"?>
<!-- Generator: Adobe Illustrator 25.4.1, SVG Export Plug-In . SVG Version: 6.00 Build 0)  -->
<svg version="1.1" id="Layer_2" xmlns="http://www.w3.org/2000/svg" xmlns:xlink="http://www.w3.org/1999/xlink" x="0px" y="0px"
	 viewBox="0 0 200 200" style="enable-background:new 0 0 200 200;" xml:space="preserve">
<style type="text/css">
	.st0{fill:#FFFFFF;}
	.st1{fill:#D1C08E;}
	.st2{fill:#F9F7C7;}
	.st3{fill:#58332B;}
	.st4{fill:#CEBC8A;}
	.st5{fill:#F5B426;}
	.st6{fill:#5C4540;}
</style>
<rect x="116.4" y="28.9" class="st0" width="8.8" height="15.5"/>
<polygon class="st1" points="125.2,28.9 133.1,28 133.1,46.2 125.2,46.2 "/>
<polygon class="st2" points="121.9,163 152.6,166.2 151.8,99.6 15.8,102.9 15.8,148.8 "/>
<path class="st3" d="M102.1,160.4l-0.2-48.1h18.8l1.8,50.9C122.5,163,102.1,160.4,102.1,160.4z"/>
<polygon class="st4" points="152.6,166.2 187.4,149.7 187.4,103.7 151.8,106 "/>
<path class="st5" d="M21.5,87c-2.9,1-22.4,11.6-19.4,14s18.8,2.7,26,3.1s38.2,0.8,47.2,1.7c8.9,0.8,42.5-2.2,50.3-1
	c7.8,1.2,20.1,3.3,27,3.2c6.9-0.2,34-1.4,37.5-2.7c3.5-1.2,2.3-10.6-2.1-14.6c-4.5-4-27.6-25.4-33-29.5
	c-5.5-4.1-12.6-12.6-13.7-16.2s0.7-4.8-6.8-4.5c-7.4,0.3-65.6,8.3-69.2,9.6c-3.6,1.3-11.4,7.3-12.9,9.6S41.7,72.2,38.6,75.5
	C35.5,78.8,27.4,84.9,21.5,87z"/>
<polygon class="st6" points="28.8,118.4 37.9,118.5 38.1,132 28.8,130.8 "/>
<polygon class="st6" points="54.5,119.6 63.8,119.4 64,133.9 55.6,133.9 "/>
</svg>
