<?xml version="1.0" encoding="utf-8"?>
<!-- Generator: Adobe Illustrator 25.4.1, SVG Export Plug-In . SVG Version: 6.00 Build 0)  -->
<svg version="1.1" id="Layer_2_00000101066004320115065130000000170466931487100804_"
	 xmlns="http://www.w3.org/2000/svg" xmlns:xlink="http://www.w3.org/1999/xlink" x="0px" y="0px" viewBox="0 0 200 200"
	 style="enable-background:new 0 0 200 200;" xml:space="preserve">
<style type="text/css">
	.st0{fill:#FFFFFF;}
</style>
<circle cx="89.4" cy="29.4" r="14.4"/>
<path d="M98.7,43.7C62.4,58.5,98.2,81,50,95.6c-4.3,10.8,26.7-5.2,29-3.8l7.1-16.6c4.8,25.2,2.1,44.5-9.6,67.3L74.9,198h10.6
	c1.1-13.4,2.4-52.1,11.6-62.8c-0.6,16.3,19.7,51.2,27.7,64.8l10.1-6.3l-20.2-39.6c2.5-20.7,1.5-61.7-4.8-81.7l9.1,11.9l-5.3,21.2
	c4.1,13.8,11.9-22.7,14.1-23C122.9,72.9,111.2,46.1,98.7,43.7z"/>
<path class="st0" d="M177.7,103.5c0,0.4-0.1,0.8-0.4,1.3c-4.1,4.3-7.9,8.7-11.8,12.8c-4.2,4.4-8.7,8.6-13.9,12.4
	c-0.3,0.3-0.7,0.5-1.1,0.7c-2.5,4.1-7.7,7.4-10.6,11c-3.1,3.6-6.6,7.6-11.1,8.3l-0.3,0.3h-4.1l-7.3,4.1l-8,6.9l-4.3,8.2l-9.5,8.4
	l-9.9,9.3l-1.9,6.1l6.9,4.1h13.5l15.4-3.7l10.8-4.8l6-6l3.4-7.4l2-6.7l2.8-4.5l9.3-9.9l11.8-11.8L200,108V82.5L177.7,103.5z"/>
<path d="M165.6,139.5l-14.8,14.6c-2.6-4-5.2-9-9.6-10.6l24.4-24.2L200,85.3v-5l-34.4,34.1l-29.6,29.3l0.1,0.1
	c-0.3,0.3-0.6,0.6-0.8,0.9c-0.8,1.2-1.6,2.4-3,2.9c-0.3,0.1-0.7,0.3-0.9,0.5c-9.6-2.1-20.7,8.8-25.6,16.1c-0.6,0.9-1.1,1.7-1.6,2.6
	c-0.1,0.2-0.2,0.4-0.3,0.6c-1.6,3.9-5.6,6.6-8.8,9.1c-3.4,2.7-6.9,5.3-9.8,8.5c-3.7,4.2-4.6,10.2,0.9,13.2
	c5.7,3.1,14.1,1.3,20.1,0.3c7-1.2,14-2.8,20.4-5.9c8.4-4,14.9-13.7,16.1-23.5c0.4-0.2,0.8-0.5,1.1-0.8c2.9-3,4.9-6.7,7.4-10.1
	l0.1,0.1l14.1-14l34.4-34.1v-5L165.6,139.5z M136.8,178c-2.8,7.7-10.1,11.5-17.4,13.9c-4.7,1.5-9.7,2.4-14.6,3.2
	c-5.1,0.8-12.6,2-17.2-1c-6-3.9,4.5-11.1,7.3-13.3c4.7-3.6,9.9-7.3,12.3-12.9c0,0,0,0,0,0c4-6.9,9.7-13.2,17.5-15.5
	c4.5-1.3,7.6,0.3,10.7,3.6C140.6,161.7,139.2,171.3,136.8,178z M142.9,164.8c-0.2-4.7-1.8-9.1-5.2-12.8c-0.9-0.9-1.8-1.7-2.7-2.3
	c1-0.8,1.8-1.7,2.5-2.7c5.1,0.5,7.8,6.8,10.5,10.7C146.2,160,144.7,162.5,142.9,164.8z"/>
</svg>
