<?xml version="1.0" encoding="utf-8"?>
<!-- Generator: Adobe Illustrator 25.4.1, SVG Export Plug-In . SVG Version: 6.00 Build 0)  -->
<svg version="1.1"
	 id="svg8" inkscape:version="0.92.3 (2405546, 2018-03-11)" xmlns:cc="http://creativecommons.org/ns#" xmlns:dc="http://purl.org/dc/elements/1.1/" xmlns:inkscape="http://www.inkscape.org/namespaces/inkscape" xmlns:rdf="http://www.w3.org/1999/02/22-rdf-syntax-ns#" xmlns:sodipodi="http://sodipodi.sourceforge.net/DTD/sodipodi-0.dtd" xmlns:svg="http://www.w3.org/2000/svg"
	 xmlns="http://www.w3.org/2000/svg" xmlns:xlink="http://www.w3.org/1999/xlink" x="0px" y="0px" viewBox="0 0 566.9 566.9"
	 style="enable-background:new 0 0 566.9 566.9;" xml:space="preserve">
<style type="text/css">
	.st0{fill:#63C1F6;}
	.st1{fill:#FFFFFF;stroke:#000000;stroke-width:8;stroke-linejoin:round;}
</style>
<sodipodi:namedview  bordercolor="#666666" borderopacity="1.0" id="base" inkscape:current-layer="layer1" inkscape:cx="206.94871" inkscape:cy="353.37998" inkscape:document-units="mm" inkscape:pageopacity="0.0" inkscape:pageshadow="2" inkscape:snap-page="true" inkscape:window-height="1025" inkscape:window-maximized="1" inkscape:window-width="1853" inkscape:window-x="67" inkscape:window-y="27" inkscape:zoom="0.7" pagecolor="#ffffff" showgrid="false">
	</sodipodi:namedview>
<path class="st0" d="M139.8,372.5c0-46.6,199.3-44.5,199.3-73.4c0-28.9-184.3-20.9-184.3-30s24.8-11.3,24.8-11.3
	s-49.8,2.1-49.8,13.3c0,11.2,137.4-1.4,137.4,27.3c0,28.7-223.2-6.3-223.2,83.2c0,89.5,428.4,185.3,428.4,185.3h94.6V447.5
	C566.9,447.5,139.8,419.1,139.8,372.5z"/>
<path id="path841" class="st1" d="M451.1,446.2l-74.4,21l25.7,37L379,520.2l-24.8-37.7L307,543.7l-48.8-227.3L451.1,446.2z"/>
</svg>
