<?xml version="1.0" encoding="utf-8"?>
<!-- Generator: Adobe Illustrator 25.4.1, SVG Export Plug-In . SVG Version: 6.00 Build 0)  -->
<svg version="1.1" id="Layer_2_00000101066004320115065130000000170466931487100804_"
	 xmlns="http://www.w3.org/2000/svg" xmlns:xlink="http://www.w3.org/1999/xlink" x="0px" y="0px" viewBox="0 0 200 200"
	 style="enable-background:new 0 0 200 200;" xml:space="preserve">
<style type="text/css">
	.st0{fill:#FFFFFF;stroke:#000000;stroke-width:8;stroke-linejoin:round;}
</style>
<circle cx="52.5" cy="20.3" r="13.7"/>
<path d="M61.3,33.9c-34.5,14-0.5,35.4-46.2,49.3c-4.1,10.3,25.4-4.9,27.5-3.6l6.7-15.8c4.6,23.9,2,42.3-9.1,63.9l-1.5,52.7h10.1
	c1-12.7,2.3-49.5,11-59.6c-0.6,15.5,18.7,48.6,26.3,61.5l9.6-6l-19.2-37.6c2.4-19.7,1.4-58.6-4.6-77.6l8.6,11.3l-5,20.1
	c3.9,13.1,11.3-21.6,13.4-21.8C84.3,61.6,73.2,36.1,61.3,33.9z"/>
<path id="path841" class="st0" d="M177.5,149.5l-31.6,8.9l10.9,15.7l-9.9,6.8l-10.5-16l-20,26L95.7,94.5L177.5,149.5z"/>
</svg>
