<?xml version="1.0" encoding="utf-8"?>
<!-- Generator: Adobe Illustrator 25.4.1, SVG Export Plug-In . SVG Version: 6.00 Build 0)  -->
<svg version="1.1" id="Layer_2" xmlns="http://www.w3.org/2000/svg" xmlns:xlink="http://www.w3.org/1999/xlink" x="0px" y="0px"
	 viewBox="0 0 200 200" style="enable-background:new 0 0 200 200;" xml:space="preserve">
<circle cx="89.7" cy="25.8" r="13.7"/>
<path d="M98.5,39.4C64,53.4,98,74.8,52.3,88.7c-4.1,10.3,25.4-4.9,27.5-3.6c0,0,6.7-15.8,6.7-15.8c4.6,23.9,2,42.3-9.1,63.9
	c0,0-1.5,52.7-1.5,52.7h10.1c1-12.7,2.3-49.5,11-59.6c-0.6,15.5,18.7,48.6,26.3,61.5c0,0,9.6-6,9.6-6l-19.2-37.6
	c2.4-19.7,1.4-58.6-4.6-77.6l8.6,11.3l-5,20.1c3.9,13.1,11.3-21.6,13.4-21.8C121.5,67.1,110.4,41.6,98.5,39.4z"/>
</svg>
